<?xml version="1.0" encoding="utf-8"?>
<!-- Generator: Adobe Illustrator 27.0.0, SVG Export Plug-In . SVG Version: 6.00 Build 0)  -->
<svg version="1.1"
	 id="svg2" xmlns:inkscape="http://www.inkscape.org/namespaces/inkscape" xmlns:rdf="http://www.w3.org/1999/02/22-rdf-syntax-ns#" xmlns:svg="http://www.w3.org/2000/svg" xmlns:cc="http://creativecommons.org/ns#" xmlns:dc="http://purl.org/dc/elements/1.1/" xmlns:sodipodi="http://sodipodi.sourceforge.net/DTD/sodipodi-0.dtd"
	 xmlns="http://www.w3.org/2000/svg" xmlns:xlink="http://www.w3.org/1999/xlink" x="0px" y="0px" viewBox="0 0 83.4 101"
	 style="enable-background:new 0 0 83.4 101;" xml:space="preserve">
<style type="text/css">
	.st0{fill:url(#path1948_00000082370453517724108580000006305026596961543574_);}
	.st1{fill:url(#path1950_00000176011483493263168680000008335822218691985569_);}
</style>
<g>
	
		<sodipodi:namedview  bordercolor="#666666" borderopacity="1.0" gridtolerance="10.0" guidetolerance="10.0" height="40mm" id="base" inkscape:current-layer="svg2" inkscape:cx="91.558698" inkscape:cy="47.9926" inkscape:deskcolor="#d1d1d1" inkscape:document-units="pt" inkscape:pagecheckerboard="0" inkscape:pageopacity="0.0" inkscape:pageshadow="2" inkscape:showpageshadow="2" inkscape:window-height="2080" inkscape:window-maximized="0" inkscape:window-width="1976" inkscape:window-x="1092" inkscape:window-y="72" inkscape:zoom="2.1461642" objecttolerance="10.0" pagecolor="#ffffff" showgrid="false" units="mm" width="210mm">
		</sodipodi:namedview>
	
		<linearGradient id="path1948_00000106105776515768402230000010477404646250004103_" gradientUnits="userSpaceOnUse" x1="1454.2053" y1="1754.4384" x2="1532.5813" y2="1821.8702" gradientTransform="matrix(0.5625 0 0 0.568 -817.3285 -988.151)">
		<stop  offset="0" style="stop-color:#5A9FD4"/>
		<stop  offset="1" style="stop-color:#306998"/>
	</linearGradient>
	<path id="path1948" style="fill:url(#path1948_00000106105776515768402230000010477404646250004103_);" d="M42.1,6.1
		c-3.3,0-6.5,0.3-9.2,0.8c-8.1,1.4-9.6,4.5-9.6,10v7.3h19.3v2.4H23.3H16c-5.6,0-10.5,3.4-12.1,9.8c-1.8,7.3-1.9,11.9,0,19.6
		c1.4,5.7,4.7,9.8,10.2,9.8h6.6V57c0-6.3,5.5-12,12.1-12h19.3c5.4,0,9.6-4.4,9.6-9.8V16.9c0-5.2-4.4-9.1-9.6-10
		C48.9,6.3,45.4,6.1,42.1,6.1z M31.7,12c2,0,3.6,1.7,3.6,3.7s-1.7,3.7-3.6,3.7c-2,0-3.6-1.7-3.6-3.7S29.7,12,31.7,12z"/>
	
		<linearGradient id="path1950_00000007396494278825442540000018333574008094746018_" gradientUnits="userSpaceOnUse" x1="1562.892" y1="1862.6865" x2="1534.9039" y2="1823.0884" gradientTransform="matrix(0.5625 0 0 0.568 -817.3285 -988.151)">
		<stop  offset="0" style="stop-color:#FFD43B"/>
		<stop  offset="1" style="stop-color:#FFE873"/>
	</linearGradient>
	<path id="path1950" style="fill:url(#path1950_00000007396494278825442540000018333574008094746018_);" d="M64.2,26.7v8.6
		c0,6.6-5.6,12.2-12.1,12.2H32.9c-5.2,0-9.6,4.5-9.6,9.8v18.3c0,5.2,4.5,8.3,9.6,9.8c6.1,1.8,11.9,2.1,19.3,0
		c4.9-1.4,9.6-4.2,9.6-9.8v-7.3H42.5v-2.4h19.3h9.6c5.6,0,7.7-3.9,9.6-9.8c2-6,1.9-11.9,0-19.6c-1.4-5.6-4-9.8-9.6-9.8H64.2z
		 M53.4,73.2c2,0,3.6,1.7,3.6,3.7s-1.7,3.7-3.6,3.7c-2,0-3.6-1.7-3.6-3.7C49.7,74.8,51.4,73.2,53.4,73.2z"/>
</g>
</svg>
